<svg width="18" height="18" viewBox="0 0 18 18" fill="none" xmlns="http://www.w3.org/2000/svg">
<path d="M13.45 3.54996C13.2522 3.54996 13.0589 3.60861 12.8944 3.71849C12.73 3.82837 12.6018 3.98455 12.5261 4.16728C12.4504 4.35 12.4306 4.55107 12.4692 4.74505C12.5078 4.93903 12.603 5.11721 12.7429 5.25707C12.8827 5.39692 13.0609 5.49216 13.2549 5.53074C13.4489 5.56933 13.6499 5.54953 13.8327 5.47384C14.0154 5.39815 14.1716 5.26998 14.2815 5.10553C14.3913 4.94108 14.45 4.74774 14.45 4.54996C14.45 4.28474 14.3446 4.03039 14.1571 3.84285C13.9696 3.65532 13.7152 3.54996 13.45 3.54996ZM17.2833 5.56663C17.2671 4.87521 17.1376 4.19113 16.9 3.54163C16.6881 2.9859 16.3583 2.48269 15.9333 2.06663C15.5207 1.63948 15.0163 1.31177 14.4583 1.10829C13.8105 0.863427 13.1257 0.730968 12.4333 0.716626C11.55 0.666626 11.2667 0.666626 8.99999 0.666626C6.73332 0.666626 6.44999 0.666626 5.56666 0.716626C4.87428 0.730968 4.18944 0.863427 3.54166 1.10829C2.98472 1.31383 2.48077 1.64126 2.06666 2.06663C1.63951 2.47927 1.3118 2.98366 1.10832 3.54163C0.863457 4.18941 0.730998 4.87425 0.716656 5.56663C0.666656 6.44996 0.666656 6.73329 0.666656 8.99996C0.666656 11.2666 0.666656 11.55 0.716656 12.4333C0.730998 13.1257 0.863457 13.8105 1.10832 14.4583C1.3118 15.0163 1.63951 15.5206 2.06666 15.9333C2.48077 16.3587 2.98472 16.6861 3.54166 16.8916C4.18944 17.1365 4.87428 17.269 5.56666 17.2833C6.44999 17.3333 6.73332 17.3333 8.99999 17.3333C11.2667 17.3333 11.55 17.3333 12.4333 17.2833C13.1257 17.269 13.8105 17.1365 14.4583 16.8916C15.0163 16.6881 15.5207 16.3604 15.9333 15.9333C16.3602 15.5188 16.6903 15.0151 16.9 14.4583C17.1376 13.8088 17.2671 13.1247 17.2833 12.4333C17.2833 11.55 17.3333 11.2666 17.3333 8.99996C17.3333 6.73329 17.3333 6.44996 17.2833 5.56663ZM15.7833 12.3333C15.7773 12.8623 15.6815 13.3864 15.5 13.8833C15.3669 14.246 15.1532 14.5736 14.875 14.8416C14.6047 15.117 14.2777 15.3303 13.9167 15.4666C13.4197 15.6481 12.8956 15.7439 12.3667 15.75C11.5333 15.7916 11.225 15.8 9.03332 15.8C6.84166 15.8 6.53332 15.8 5.69999 15.75C5.15073 15.7602 4.60382 15.6757 4.08332 15.5C3.73814 15.3567 3.42612 15.1439 3.16666 14.875C2.89006 14.6072 2.67903 14.2793 2.54999 13.9166C2.34654 13.4126 2.23369 12.8766 2.21666 12.3333C2.21666 11.5 2.16666 11.1916 2.16666 8.99996C2.16666 6.80829 2.16666 6.49996 2.21666 5.66663C2.22039 5.12584 2.31912 4.58991 2.50832 4.08329C2.65503 3.73155 2.88021 3.41801 3.16666 3.16663C3.41983 2.8801 3.73273 2.65254 4.08332 2.49996C4.59128 2.31666 5.12665 2.22086 5.66666 2.21663C6.49999 2.21663 6.80832 2.16663 8.99999 2.16663C11.1917 2.16663 11.5 2.16663 12.3333 2.21663C12.8623 2.22269 13.3864 2.3185 13.8833 2.49996C14.262 2.6405 14.6019 2.869 14.875 3.16663C15.1481 3.42261 15.3615 3.73557 15.5 4.08329C15.6852 4.59074 15.7811 5.12644 15.7833 5.66663C15.825 6.49996 15.8333 6.80829 15.8333 8.99996C15.8333 11.1916 15.825 11.5 15.7833 12.3333ZM8.99999 4.72496C8.15483 4.72661 7.32913 4.97873 6.6272 5.44947C5.92528 5.92022 5.37864 6.58846 5.05635 7.36975C4.73406 8.15105 4.65059 9.01035 4.81648 9.83907C4.98238 10.6678 5.39019 11.4287 5.98839 12.0258C6.58659 12.6228 7.34833 13.0291 8.17737 13.1934C9.00641 13.3577 9.86555 13.2725 10.6462 12.9487C11.4269 12.6249 12.0941 12.077 12.5634 11.3742C13.0328 10.6713 13.2833 9.84512 13.2833 8.99996C13.2844 8.43755 13.1743 7.88047 12.9594 7.36076C12.7444 6.84105 12.4288 6.36897 12.0307 5.97167C11.6326 5.57437 11.1599 5.25969 10.6398 5.04573C10.1197 4.83178 9.5624 4.72276 8.99999 4.72496ZM8.99999 11.775C8.45115 11.775 7.91463 11.6122 7.45828 11.3073C7.00194 11.0024 6.64626 10.569 6.43622 10.0619C6.22619 9.55484 6.17124 8.99688 6.27831 8.45858C6.38539 7.92029 6.64968 7.42583 7.03777 7.03774C7.42586 6.64965 7.92032 6.38535 8.45861 6.27828C8.99691 6.17121 9.55487 6.22616 10.0619 6.43619C10.569 6.64623 11.0024 7.00191 11.3073 7.45825C11.6122 7.9146 11.775 8.45112 11.775 8.99996C11.775 9.36438 11.7032 9.72523 11.5638 10.0619C11.4243 10.3986 11.2199 10.7045 10.9622 10.9622C10.7045 11.2199 10.3986 11.4243 10.0619 11.5637C9.72526 11.7032 9.36441 11.775 8.99999 11.775Z" fill="white"/>
</svg>
