<svg width="12" height="20" viewBox="0 0 12 20" fill="none" xmlns="http://www.w3.org/2000/svg">
<path d="M11.6917 7.86671C11.6152 7.75361 11.5122 7.66103 11.3916 7.5971C11.271 7.53316 11.1365 7.49983 11 7.50004H8.49999V5.83337H10.3333C10.5543 5.83337 10.7663 5.74558 10.9226 5.5893C11.0789 5.43302 11.1667 5.22105 11.1667 5.00004V1.66671C11.1667 1.44569 11.0789 1.23373 10.9226 1.07745C10.7663 0.921171 10.5543 0.833374 10.3333 0.833374H7.66666C6.38478 0.833374 5.1554 1.3426 4.24897 2.24902C3.34255 3.15545 2.83332 4.38483 2.83332 5.66671V7.50004H0.99999C0.778976 7.50004 0.567015 7.58784 0.410734 7.74412C0.254454 7.9004 0.166656 8.11236 0.166656 8.33337V11.6667C0.166656 11.8877 0.254454 12.0997 0.410734 12.256C0.567015 12.4122 0.778976 12.5 0.99999 12.5H2.83332V18.3334C2.83332 18.5544 2.92112 18.7663 3.0774 18.9226C3.23368 19.0789 3.44564 19.1667 3.66666 19.1667H7.66666C7.88767 19.1667 8.09963 19.0789 8.25591 18.9226C8.41219 18.7663 8.49999 18.5544 8.49999 18.3334V12.5H9.66666C9.83356 12.5002 9.99666 12.4502 10.1348 12.3566C10.273 12.263 10.3799 12.1301 10.4417 11.975L11.775 8.64171C11.8253 8.51552 11.844 8.37894 11.8295 8.24386C11.815 8.10879 11.7677 7.97931 11.6917 7.86671ZM9.09999 10.8334H7.66666C7.44564 10.8334 7.23368 10.9212 7.0774 11.0775C6.92112 11.2337 6.83332 11.4457 6.83332 11.6667V17.5H4.49999V11.6667C4.49999 11.4457 4.41219 11.2337 4.25591 11.0775C4.09963 10.9212 3.88767 10.8334 3.66666 10.8334H1.83332V9.16671H3.66666C3.88767 9.16671 4.09963 9.07891 4.25591 8.92263C4.41219 8.76635 4.49999 8.55439 4.49999 8.33337V5.66671C4.50219 4.82753 4.83653 4.02335 5.42991 3.42997C6.0233 2.83658 6.82748 2.50224 7.66666 2.50004H9.49999V4.16671H8.83332C8.55117 4.1256 8.26358 4.14285 7.98837 4.21739C7.71315 4.29193 7.45617 4.42217 7.23332 4.60004C7.09809 4.74162 6.99293 4.90912 6.92418 5.09245C6.85544 5.27577 6.82453 5.47112 6.83332 5.66671V8.33337C6.83332 8.55439 6.92112 8.76635 7.0774 8.92263C7.23368 9.07891 7.44564 9.16671 7.66666 9.16671H9.76666L9.09999 10.8334Z" fill="white"/>
</svg>
