<svg width="20" height="18" viewBox="0 0 20 18" fill="none" xmlns="http://www.w3.org/2000/svg">
<path d="M18.5539 1.02315C18.3166 0.825761 18.0303 0.696396 17.7253 0.64882C17.4204 0.601245 17.1082 0.63724 16.8221 0.752974L1.88803 6.78243C1.56865 6.91384 1.29679 7.13926 1.10853 7.42878C0.920266 7.7183 0.824503 8.05824 0.83395 8.40346C0.843398 8.74868 0.957611 9.08286 1.16143 9.36165C1.36525 9.64045 1.64903 9.85066 1.97511 9.9644L4.99595 11.015L6.6797 16.583C6.70258 16.6574 6.73578 16.7282 6.77835 16.7934C6.7848 16.8034 6.79391 16.8108 6.80078 16.8205C6.84995 16.8891 6.90937 16.9498 6.97697 17.0003C6.9962 17.015 7.0146 17.0287 7.03515 17.0417C7.11427 17.0942 7.20188 17.1326 7.2941 17.1552L7.30396 17.156L7.30955 17.1584C7.365 17.1697 7.42143 17.1754 7.47801 17.1755C7.48345 17.1755 7.48829 17.1729 7.49368 17.1728C7.57906 17.1713 7.6637 17.1566 7.74459 17.1292C7.7634 17.1228 7.77953 17.1121 7.79779 17.1043C7.8581 17.0793 7.91525 17.0473 7.96803 17.0089C8.0103 16.9732 8.05258 16.9376 8.09488 16.902L10.3467 14.4159L13.7052 17.0176C14.0009 17.2478 14.3649 17.3729 14.7396 17.3732C15.1322 17.3727 15.5128 17.2373 15.8174 16.9895C16.122 16.7418 16.3322 16.3968 16.4128 16.0125L19.1317 2.66541C19.1933 2.36501 19.1721 2.05351 19.0703 1.76423C18.9685 1.47496 18.79 1.2188 18.5539 1.02315ZM7.80845 11.2803C7.6929 11.3954 7.61391 11.5421 7.5814 11.7019L7.32347 12.9552L6.67009 10.7943L10.0578 9.03018L7.80845 11.2803ZM14.7266 15.7L10.7577 12.6255C10.5916 12.4972 10.3833 12.4362 10.1743 12.4546C9.96524 12.473 9.77081 12.5694 9.62973 12.7248L8.90856 13.5208L9.16342 12.2821L15.0659 6.37958C15.2068 6.23888 15.2926 6.05237 15.3079 5.85384C15.3231 5.65532 15.2668 5.45789 15.149 5.29734C15.0312 5.13678 14.8599 5.02371 14.6659 4.9786C14.472 4.9335 14.2683 4.95934 14.0918 5.05145L5.62074 9.46198L2.5171 8.32622L17.4992 2.33254L14.7266 15.7Z" fill="white"/>
</svg>
