<svg width="20" height="14" viewBox="0 0 20 14" fill="none" xmlns="http://www.w3.org/2000/svg">
<path d="M4.16634 12.8337C3.40025 12.0676 2.79255 11.1581 2.37794 10.1571C1.96333 9.15621 1.74994 8.0834 1.74994 6.99999C1.74994 5.91657 1.96333 4.84377 2.37794 3.84283C2.79255 2.84188 3.40025 1.93241 4.16634 1.16632M15.8337 1.16632C16.5998 1.93241 17.2075 2.84188 17.6221 3.84283C18.0367 4.84377 18.2501 5.91657 18.2501 6.99999C18.2501 8.0834 18.0367 9.15621 17.6221 10.1571C17.2075 11.1581 16.5998 12.0676 15.8337 12.8337M6.75868 10.2404C5.89944 9.3809 5.41674 8.21532 5.41674 6.99999C5.41674 5.78465 5.89944 4.61907 6.75868 3.75957M13.2413 3.75957C14.1006 4.61907 14.5833 5.78465 14.5833 6.99999C14.5833 8.21532 14.1006 9.3809 13.2413 10.2404M10.9167 6.99999C10.9167 7.2431 10.8201 7.47626 10.6482 7.64817C10.4763 7.82008 10.2431 7.91665 10 7.91665C9.7569 7.91665 9.52374 7.82008 9.35183 7.64817C9.17992 7.47626 9.08334 7.2431 9.08334 6.99999C9.08334 6.75687 9.17992 6.52371 9.35183 6.35181C9.52374 6.1799 9.7569 6.08332 10 6.08332C10.2431 6.08332 10.4763 6.1799 10.6482 6.35181C10.8201 6.52371 10.9167 6.75687 10.9167 6.99999Z" stroke="#006AFF" stroke-width="2" stroke-linecap="round" stroke-linejoin="round"/>
</svg>
