<svg width="16" height="20" viewBox="0 0 16 20" fill="none" xmlns="http://www.w3.org/2000/svg">
<path d="M10.5927 8.00939C11.2803 7.32176 11.6666 6.38913 11.6666 5.41667C11.6666 4.44421 11.2803 3.51157 10.5927 2.82394C9.90507 2.13631 8.97244 1.75 7.99998 1.75C7.02752 1.75 6.09489 2.13631 5.40725 2.82394C4.71962 3.51157 4.33331 4.44421 4.33331 5.41667C4.33331 6.38913 4.71962 7.32176 5.40725 8.00939C6.09489 8.69703 7.02752 9.08333 7.99998 9.08333C8.97244 9.08333 9.90507 8.69703 10.5927 8.00939Z" stroke="#006AFF" stroke-width="2" stroke-linecap="round" stroke-linejoin="round"/>
<path d="M3.46271 13.7127C4.66607 12.5094 6.29817 11.8333 7.99998 11.8333C9.70178 11.8333 11.3339 12.5094 12.5372 13.7127C13.7406 14.9161 14.4166 16.5482 14.4166 18.25H1.58331C1.58331 16.5482 2.25935 14.9161 3.46271 13.7127Z" stroke="#006AFF" stroke-width="2" stroke-linecap="round" stroke-linejoin="round"/>
</svg>
